<mxfile host="Electron" modified="2024-02-25T03:46:17.377Z" agent="Mozilla/5.0 (X11; Linux x86_64) AppleWebKit/537.36 (KHTML, like Gecko) draw.io/23.1.5 Chrome/120.0.6099.109 Electron/28.2.4 Safari/537.36" etag="nwZDbZtEFbRXr7roFS8V" version="23.1.5" type="device">
  <diagram id="C5RBs43oDa-KdzZeNtuy" name="Page-1">
    <mxGraphModel dx="6893" dy="2048" grid="1" gridSize="10" guides="1" tooltips="1" connect="1" arrows="1" fold="1" page="1" pageScale="1" pageWidth="827" pageHeight="1169" math="0" shadow="0">
      <root>
        <mxCell id="WIyWlLk6GJQsqaUBKTNV-0" />
        <mxCell id="WIyWlLk6GJQsqaUBKTNV-1" parent="WIyWlLk6GJQsqaUBKTNV-0" />
        <mxCell id="CBWAm8pQO7bB-vImwyso-70" style="edgeStyle=orthogonalEdgeStyle;rounded=0;orthogonalLoop=1;jettySize=auto;html=1;exitX=0;exitY=0.5;exitDx=0;exitDy=0;entryX=0.5;entryY=0;entryDx=0;entryDy=0;" edge="1" parent="WIyWlLk6GJQsqaUBKTNV-1" source="CBWAm8pQO7bB-vImwyso-44" target="CBWAm8pQO7bB-vImwyso-59">
          <mxGeometry relative="1" as="geometry" />
        </mxCell>
        <mxCell id="CBWAm8pQO7bB-vImwyso-44" value="Main" style="rounded=1;whiteSpace=wrap;html=1;fillColor=#6d8764;fontColor=#ffffff;strokeColor=#3A5431;" vertex="1" parent="WIyWlLk6GJQsqaUBKTNV-1">
          <mxGeometry x="-1830" y="90" width="120" height="60" as="geometry" />
        </mxCell>
        <mxCell id="CBWAm8pQO7bB-vImwyso-159" style="edgeStyle=orthogonalEdgeStyle;rounded=0;orthogonalLoop=1;jettySize=auto;html=1;exitX=0;exitY=0.5;exitDx=0;exitDy=0;entryX=0.25;entryY=1;entryDx=0;entryDy=0;" edge="1" parent="WIyWlLk6GJQsqaUBKTNV-1" source="CBWAm8pQO7bB-vImwyso-59" target="CBWAm8pQO7bB-vImwyso-151">
          <mxGeometry relative="1" as="geometry">
            <Array as="points">
              <mxPoint x="-2180" y="265" />
              <mxPoint x="-2180" y="1260" />
              <mxPoint x="-1422" y="1260" />
            </Array>
          </mxGeometry>
        </mxCell>
        <mxCell id="CBWAm8pQO7bB-vImwyso-59" value="Directorio" style="html=1;whiteSpace=wrap;" vertex="1" parent="WIyWlLk6GJQsqaUBKTNV-1">
          <mxGeometry x="-1990" y="230" width="130" height="70" as="geometry" />
        </mxCell>
        <mxCell id="CBWAm8pQO7bB-vImwyso-74" style="edgeStyle=orthogonalEdgeStyle;rounded=0;orthogonalLoop=1;jettySize=auto;html=1;exitX=1;exitY=0.25;exitDx=0;exitDy=0;entryX=0;entryY=0.25;entryDx=0;entryDy=0;" edge="1" parent="WIyWlLk6GJQsqaUBKTNV-1" source="CBWAm8pQO7bB-vImwyso-62" target="CBWAm8pQO7bB-vImwyso-64">
          <mxGeometry relative="1" as="geometry" />
        </mxCell>
        <mxCell id="CBWAm8pQO7bB-vImwyso-179" style="edgeStyle=orthogonalEdgeStyle;rounded=0;orthogonalLoop=1;jettySize=auto;html=1;exitX=1;exitY=0.5;exitDx=0;exitDy=0;entryX=0.25;entryY=0;entryDx=0;entryDy=0;fillColor=#6d8764;strokeColor=#3A5431;" edge="1" parent="WIyWlLk6GJQsqaUBKTNV-1" source="CBWAm8pQO7bB-vImwyso-62" target="CBWAm8pQO7bB-vImwyso-134">
          <mxGeometry relative="1" as="geometry" />
        </mxCell>
        <mxCell id="CBWAm8pQO7bB-vImwyso-180" style="edgeStyle=orthogonalEdgeStyle;rounded=0;orthogonalLoop=1;jettySize=auto;html=1;exitX=1;exitY=0.5;exitDx=0;exitDy=0;entryX=0.25;entryY=0;entryDx=0;entryDy=0;fillColor=#6d8764;strokeColor=#3A5431;" edge="1" parent="WIyWlLk6GJQsqaUBKTNV-1" source="CBWAm8pQO7bB-vImwyso-62" target="CBWAm8pQO7bB-vImwyso-114">
          <mxGeometry relative="1" as="geometry" />
        </mxCell>
        <mxCell id="CBWAm8pQO7bB-vImwyso-62" value="Nuevo Registro&amp;nbsp;" style="html=1;whiteSpace=wrap;" vertex="1" parent="WIyWlLk6GJQsqaUBKTNV-1">
          <mxGeometry x="-2138" y="760" width="110" height="50" as="geometry" />
        </mxCell>
        <mxCell id="CBWAm8pQO7bB-vImwyso-75" style="edgeStyle=orthogonalEdgeStyle;rounded=0;orthogonalLoop=1;jettySize=auto;html=1;exitX=1;exitY=0.5;exitDx=0;exitDy=0;entryX=0;entryY=0.5;entryDx=0;entryDy=0;" edge="1" parent="WIyWlLk6GJQsqaUBKTNV-1" source="CBWAm8pQO7bB-vImwyso-63" target="CBWAm8pQO7bB-vImwyso-64">
          <mxGeometry relative="1" as="geometry" />
        </mxCell>
        <mxCell id="CBWAm8pQO7bB-vImwyso-63" value="importar datos" style="html=1;whiteSpace=wrap;" vertex="1" parent="WIyWlLk6GJQsqaUBKTNV-1">
          <mxGeometry x="-2135" y="845" width="110" height="50" as="geometry" />
        </mxCell>
        <mxCell id="CBWAm8pQO7bB-vImwyso-64" value="Panel Menu" style="html=1;whiteSpace=wrap;fillColor=#647687;fontColor=#ffffff;strokeColor=#314354;" vertex="1" parent="WIyWlLk6GJQsqaUBKTNV-1">
          <mxGeometry x="-1910" y="445" width="110" height="50" as="geometry" />
        </mxCell>
        <mxCell id="CBWAm8pQO7bB-vImwyso-72" style="edgeStyle=orthogonalEdgeStyle;rounded=0;orthogonalLoop=1;jettySize=auto;html=1;exitX=1;exitY=0.5;exitDx=0;exitDy=0;entryX=0;entryY=0.5;entryDx=0;entryDy=0;" edge="1" parent="WIyWlLk6GJQsqaUBKTNV-1" source="CBWAm8pQO7bB-vImwyso-65" target="CBWAm8pQO7bB-vImwyso-64">
          <mxGeometry relative="1" as="geometry" />
        </mxCell>
        <mxCell id="CBWAm8pQO7bB-vImwyso-215" style="edgeStyle=orthogonalEdgeStyle;rounded=0;orthogonalLoop=1;jettySize=auto;html=1;exitX=0.5;exitY=0;exitDx=0;exitDy=0;entryX=0.25;entryY=0;entryDx=0;entryDy=0;fillColor=#a0522d;strokeColor=#6D1F00;" edge="1" parent="WIyWlLk6GJQsqaUBKTNV-1" source="CBWAm8pQO7bB-vImwyso-65" target="CBWAm8pQO7bB-vImwyso-162">
          <mxGeometry relative="1" as="geometry">
            <Array as="points">
              <mxPoint x="-2083" y="60" />
              <mxPoint x="-1430" y="60" />
            </Array>
          </mxGeometry>
        </mxCell>
        <mxCell id="CBWAm8pQO7bB-vImwyso-65" value="Realizar Prestamo" style="html=1;whiteSpace=wrap;" vertex="1" parent="WIyWlLk6GJQsqaUBKTNV-1">
          <mxGeometry x="-2138" y="476" width="110" height="50" as="geometry" />
        </mxCell>
        <mxCell id="CBWAm8pQO7bB-vImwyso-67" value="Inicio Principal" style="html=1;whiteSpace=wrap;" vertex="1" parent="WIyWlLk6GJQsqaUBKTNV-1">
          <mxGeometry x="-1800" y="238" width="120" height="68" as="geometry" />
        </mxCell>
        <mxCell id="CBWAm8pQO7bB-vImwyso-68" value="Panel Central" style="html=1;whiteSpace=wrap;fillColor=#647687;fontColor=#ffffff;strokeColor=#314354;" vertex="1" parent="WIyWlLk6GJQsqaUBKTNV-1">
          <mxGeometry x="-1700" y="445" width="110" height="50" as="geometry" />
        </mxCell>
        <mxCell id="CBWAm8pQO7bB-vImwyso-73" style="edgeStyle=orthogonalEdgeStyle;rounded=0;orthogonalLoop=1;jettySize=auto;html=1;exitX=1;exitY=0.5;exitDx=0;exitDy=0;entryX=0;entryY=0.75;entryDx=0;entryDy=0;" edge="1" parent="WIyWlLk6GJQsqaUBKTNV-1" source="CBWAm8pQO7bB-vImwyso-69" target="CBWAm8pQO7bB-vImwyso-64">
          <mxGeometry relative="1" as="geometry" />
        </mxCell>
        <mxCell id="CBWAm8pQO7bB-vImwyso-241" style="edgeStyle=orthogonalEdgeStyle;rounded=0;orthogonalLoop=1;jettySize=auto;html=1;exitX=0;exitY=0.5;exitDx=0;exitDy=0;entryX=0.25;entryY=0;entryDx=0;entryDy=0;" edge="1" parent="WIyWlLk6GJQsqaUBKTNV-1" source="CBWAm8pQO7bB-vImwyso-69" target="CBWAm8pQO7bB-vImwyso-211">
          <mxGeometry relative="1" as="geometry" />
        </mxCell>
        <mxCell id="CBWAm8pQO7bB-vImwyso-69" value="Realizar Devolucion" style="html=1;whiteSpace=wrap;" vertex="1" parent="WIyWlLk6GJQsqaUBKTNV-1">
          <mxGeometry x="-2138" y="564" width="110" height="50" as="geometry" />
        </mxCell>
        <mxCell id="CBWAm8pQO7bB-vImwyso-71" style="edgeStyle=orthogonalEdgeStyle;rounded=0;orthogonalLoop=1;jettySize=auto;html=1;exitX=1;exitY=0.5;exitDx=0;exitDy=0;entryX=-0.017;entryY=0.397;entryDx=0;entryDy=0;entryPerimeter=0;" edge="1" parent="WIyWlLk6GJQsqaUBKTNV-1" source="CBWAm8pQO7bB-vImwyso-59" target="CBWAm8pQO7bB-vImwyso-67">
          <mxGeometry relative="1" as="geometry" />
        </mxCell>
        <mxCell id="CBWAm8pQO7bB-vImwyso-76" style="edgeStyle=orthogonalEdgeStyle;rounded=0;orthogonalLoop=1;jettySize=auto;html=1;exitX=0.5;exitY=0;exitDx=0;exitDy=0;entryX=0.399;entryY=1.011;entryDx=0;entryDy=0;entryPerimeter=0;" edge="1" parent="WIyWlLk6GJQsqaUBKTNV-1" source="CBWAm8pQO7bB-vImwyso-64" target="CBWAm8pQO7bB-vImwyso-67">
          <mxGeometry relative="1" as="geometry" />
        </mxCell>
        <mxCell id="CBWAm8pQO7bB-vImwyso-77" style="edgeStyle=orthogonalEdgeStyle;rounded=0;orthogonalLoop=1;jettySize=auto;html=1;exitX=0.5;exitY=0;exitDx=0;exitDy=0;entryX=0.417;entryY=1.011;entryDx=0;entryDy=0;entryPerimeter=0;" edge="1" parent="WIyWlLk6GJQsqaUBKTNV-1" source="CBWAm8pQO7bB-vImwyso-68" target="CBWAm8pQO7bB-vImwyso-67">
          <mxGeometry relative="1" as="geometry" />
        </mxCell>
        <mxCell id="CBWAm8pQO7bB-vImwyso-104" style="edgeStyle=orthogonalEdgeStyle;rounded=0;orthogonalLoop=1;jettySize=auto;html=1;exitX=0.5;exitY=1;exitDx=0;exitDy=0;entryX=0.5;entryY=0;entryDx=0;entryDy=0;" edge="1" parent="WIyWlLk6GJQsqaUBKTNV-1" source="CBWAm8pQO7bB-vImwyso-85" target="CBWAm8pQO7bB-vImwyso-103">
          <mxGeometry relative="1" as="geometry" />
        </mxCell>
        <mxCell id="CBWAm8pQO7bB-vImwyso-85" value="Panel Importar Datos" style="html=1;whiteSpace=wrap;fillColor=#e51400;fontColor=#ffffff;strokeColor=#B20000;" vertex="1" parent="WIyWlLk6GJQsqaUBKTNV-1">
          <mxGeometry x="-1704" y="859" width="110" height="50" as="geometry" />
        </mxCell>
        <mxCell id="CBWAm8pQO7bB-vImwyso-95" style="edgeStyle=orthogonalEdgeStyle;rounded=0;orthogonalLoop=1;jettySize=auto;html=1;exitX=0.5;exitY=0;exitDx=0;exitDy=0;entryX=1;entryY=0.5;entryDx=0;entryDy=0;" edge="1" parent="WIyWlLk6GJQsqaUBKTNV-1" source="CBWAm8pQO7bB-vImwyso-86" target="CBWAm8pQO7bB-vImwyso-85">
          <mxGeometry relative="1" as="geometry" />
        </mxCell>
        <mxCell id="CBWAm8pQO7bB-vImwyso-112" style="edgeStyle=orthogonalEdgeStyle;rounded=0;orthogonalLoop=1;jettySize=auto;html=1;exitX=1;exitY=0.5;exitDx=0;exitDy=0;entryX=0;entryY=0.5;entryDx=0;entryDy=0;" edge="1" parent="WIyWlLk6GJQsqaUBKTNV-1" source="CBWAm8pQO7bB-vImwyso-86" target="CBWAm8pQO7bB-vImwyso-87">
          <mxGeometry relative="1" as="geometry" />
        </mxCell>
        <mxCell id="CBWAm8pQO7bB-vImwyso-86" value="ComboBox" style="html=1;whiteSpace=wrap;" vertex="1" parent="WIyWlLk6GJQsqaUBKTNV-1">
          <mxGeometry x="-1520" y="945" width="110" height="50" as="geometry" />
        </mxCell>
        <mxCell id="CBWAm8pQO7bB-vImwyso-96" style="edgeStyle=orthogonalEdgeStyle;rounded=0;orthogonalLoop=1;jettySize=auto;html=1;exitX=0.5;exitY=0;exitDx=0;exitDy=0;entryX=1;entryY=0.5;entryDx=0;entryDy=0;" edge="1" parent="WIyWlLk6GJQsqaUBKTNV-1" source="CBWAm8pQO7bB-vImwyso-87" target="CBWAm8pQO7bB-vImwyso-85">
          <mxGeometry relative="1" as="geometry" />
        </mxCell>
        <mxCell id="CBWAm8pQO7bB-vImwyso-87" value="Cuadro de Datos" style="html=1;whiteSpace=wrap;" vertex="1" parent="WIyWlLk6GJQsqaUBKTNV-1">
          <mxGeometry x="-1340" y="945" width="110" height="50" as="geometry" />
        </mxCell>
        <mxCell id="CBWAm8pQO7bB-vImwyso-97" style="edgeStyle=orthogonalEdgeStyle;rounded=0;orthogonalLoop=1;jettySize=auto;html=1;exitX=0.5;exitY=0;exitDx=0;exitDy=0;entryX=1;entryY=0.5;entryDx=0;entryDy=0;" edge="1" parent="WIyWlLk6GJQsqaUBKTNV-1" source="CBWAm8pQO7bB-vImwyso-88" target="CBWAm8pQO7bB-vImwyso-85">
          <mxGeometry relative="1" as="geometry" />
        </mxCell>
        <mxCell id="CBWAm8pQO7bB-vImwyso-88" value="Muestra de error" style="html=1;whiteSpace=wrap;" vertex="1" parent="WIyWlLk6GJQsqaUBKTNV-1">
          <mxGeometry x="-1200" y="945" width="110" height="50" as="geometry" />
        </mxCell>
        <mxCell id="CBWAm8pQO7bB-vImwyso-107" style="edgeStyle=orthogonalEdgeStyle;rounded=0;orthogonalLoop=1;jettySize=auto;html=1;exitX=0.5;exitY=1;exitDx=0;exitDy=0;" edge="1" parent="WIyWlLk6GJQsqaUBKTNV-1" source="CBWAm8pQO7bB-vImwyso-89" target="CBWAm8pQO7bB-vImwyso-94">
          <mxGeometry relative="1" as="geometry" />
        </mxCell>
        <mxCell id="CBWAm8pQO7bB-vImwyso-89" value="Lectura de archivo" style="html=1;whiteSpace=wrap;" vertex="1" parent="WIyWlLk6GJQsqaUBKTNV-1">
          <mxGeometry x="-1990" y="975" width="110" height="50" as="geometry" />
        </mxCell>
        <mxCell id="CBWAm8pQO7bB-vImwyso-91" style="edgeStyle=orthogonalEdgeStyle;rounded=0;orthogonalLoop=1;jettySize=auto;html=1;exitX=1;exitY=0.5;exitDx=0;exitDy=0;entryX=-0.036;entryY=0.229;entryDx=0;entryDy=0;entryPerimeter=0;fillColor=#e51400;strokeColor=#B20000;" edge="1" parent="WIyWlLk6GJQsqaUBKTNV-1" source="CBWAm8pQO7bB-vImwyso-63" target="CBWAm8pQO7bB-vImwyso-85">
          <mxGeometry relative="1" as="geometry" />
        </mxCell>
        <mxCell id="CBWAm8pQO7bB-vImwyso-92" style="edgeStyle=orthogonalEdgeStyle;rounded=0;orthogonalLoop=1;jettySize=auto;html=1;exitX=0.5;exitY=0;exitDx=0;exitDy=0;entryX=0.462;entryY=1.009;entryDx=0;entryDy=0;entryPerimeter=0;" edge="1" parent="WIyWlLk6GJQsqaUBKTNV-1" source="CBWAm8pQO7bB-vImwyso-85" target="CBWAm8pQO7bB-vImwyso-68">
          <mxGeometry relative="1" as="geometry" />
        </mxCell>
        <mxCell id="CBWAm8pQO7bB-vImwyso-111" style="edgeStyle=orthogonalEdgeStyle;rounded=0;orthogonalLoop=1;jettySize=auto;html=1;exitX=1;exitY=0.5;exitDx=0;exitDy=0;entryX=0.5;entryY=1;entryDx=0;entryDy=0;" edge="1" parent="WIyWlLk6GJQsqaUBKTNV-1" source="CBWAm8pQO7bB-vImwyso-94" target="CBWAm8pQO7bB-vImwyso-88">
          <mxGeometry relative="1" as="geometry" />
        </mxCell>
        <mxCell id="CBWAm8pQO7bB-vImwyso-152" style="edgeStyle=orthogonalEdgeStyle;rounded=0;orthogonalLoop=1;jettySize=auto;html=1;exitX=0.5;exitY=1;exitDx=0;exitDy=0;entryX=0;entryY=0.5;entryDx=0;entryDy=0;" edge="1" parent="WIyWlLk6GJQsqaUBKTNV-1" source="CBWAm8pQO7bB-vImwyso-94" target="CBWAm8pQO7bB-vImwyso-151">
          <mxGeometry relative="1" as="geometry" />
        </mxCell>
        <mxCell id="CBWAm8pQO7bB-vImwyso-94" value="Analisis de Datos" style="html=1;whiteSpace=wrap;" vertex="1" parent="WIyWlLk6GJQsqaUBKTNV-1">
          <mxGeometry x="-1990" y="1085" width="110" height="50" as="geometry" />
        </mxCell>
        <mxCell id="CBWAm8pQO7bB-vImwyso-105" style="edgeStyle=orthogonalEdgeStyle;rounded=0;orthogonalLoop=1;jettySize=auto;html=1;exitX=0;exitY=0.5;exitDx=0;exitDy=0;entryX=1;entryY=0.5;entryDx=0;entryDy=0;" edge="1" parent="WIyWlLk6GJQsqaUBKTNV-1" source="CBWAm8pQO7bB-vImwyso-103" target="CBWAm8pQO7bB-vImwyso-89">
          <mxGeometry relative="1" as="geometry" />
        </mxCell>
        <mxCell id="CBWAm8pQO7bB-vImwyso-103" value="Buscador de archivo&amp;nbsp;" style="html=1;whiteSpace=wrap;" vertex="1" parent="WIyWlLk6GJQsqaUBKTNV-1">
          <mxGeometry x="-1704" y="975" width="110" height="50" as="geometry" />
        </mxCell>
        <mxCell id="CBWAm8pQO7bB-vImwyso-106" value="" style="shape=note;whiteSpace=wrap;html=1;backgroundOutline=1;darkOpacity=0.05;size=10;" vertex="1" parent="WIyWlLk6GJQsqaUBKTNV-1">
          <mxGeometry x="-1800" y="955" width="30" height="30" as="geometry" />
        </mxCell>
        <mxCell id="CBWAm8pQO7bB-vImwyso-114" value="Registro Estudiante&amp;nbsp;" style="html=1;whiteSpace=wrap;fillColor=#e51400;fontColor=#ffffff;strokeColor=#B20000;" vertex="1" parent="WIyWlLk6GJQsqaUBKTNV-1">
          <mxGeometry x="-866.95" y="859" width="110" height="50" as="geometry" />
        </mxCell>
        <mxCell id="CBWAm8pQO7bB-vImwyso-123" style="edgeStyle=orthogonalEdgeStyle;rounded=0;orthogonalLoop=1;jettySize=auto;html=1;exitX=0;exitY=0.5;exitDx=0;exitDy=0;entryX=0;entryY=0.5;entryDx=0;entryDy=0;" edge="1" parent="WIyWlLk6GJQsqaUBKTNV-1" source="CBWAm8pQO7bB-vImwyso-115" target="CBWAm8pQO7bB-vImwyso-114">
          <mxGeometry relative="1" as="geometry" />
        </mxCell>
        <mxCell id="CBWAm8pQO7bB-vImwyso-115" value="Carnet" style="rounded=0;whiteSpace=wrap;html=1;" vertex="1" parent="WIyWlLk6GJQsqaUBKTNV-1">
          <mxGeometry x="-969.95" y="959" width="120" height="60" as="geometry" />
        </mxCell>
        <mxCell id="CBWAm8pQO7bB-vImwyso-124" style="edgeStyle=orthogonalEdgeStyle;rounded=0;orthogonalLoop=1;jettySize=auto;html=1;exitX=0;exitY=0.5;exitDx=0;exitDy=0;entryX=0;entryY=0.5;entryDx=0;entryDy=0;" edge="1" parent="WIyWlLk6GJQsqaUBKTNV-1" source="CBWAm8pQO7bB-vImwyso-116" target="CBWAm8pQO7bB-vImwyso-114">
          <mxGeometry relative="1" as="geometry" />
        </mxCell>
        <mxCell id="CBWAm8pQO7bB-vImwyso-116" value="Nombre" style="rounded=0;whiteSpace=wrap;html=1;" vertex="1" parent="WIyWlLk6GJQsqaUBKTNV-1">
          <mxGeometry x="-969.95" y="1059" width="120" height="60" as="geometry" />
        </mxCell>
        <mxCell id="CBWAm8pQO7bB-vImwyso-126" style="edgeStyle=orthogonalEdgeStyle;rounded=0;orthogonalLoop=1;jettySize=auto;html=1;exitX=1;exitY=0.5;exitDx=0;exitDy=0;entryX=1;entryY=0.5;entryDx=0;entryDy=0;" edge="1" parent="WIyWlLk6GJQsqaUBKTNV-1" source="CBWAm8pQO7bB-vImwyso-117" target="CBWAm8pQO7bB-vImwyso-114">
          <mxGeometry relative="1" as="geometry" />
        </mxCell>
        <mxCell id="CBWAm8pQO7bB-vImwyso-117" value="Codigo Carrera" style="rounded=0;whiteSpace=wrap;html=1;" vertex="1" parent="WIyWlLk6GJQsqaUBKTNV-1">
          <mxGeometry x="-766.95" y="959" width="120" height="60" as="geometry" />
        </mxCell>
        <mxCell id="CBWAm8pQO7bB-vImwyso-127" style="edgeStyle=orthogonalEdgeStyle;rounded=0;orthogonalLoop=1;jettySize=auto;html=1;exitX=1;exitY=0.5;exitDx=0;exitDy=0;entryX=1;entryY=0.5;entryDx=0;entryDy=0;" edge="1" parent="WIyWlLk6GJQsqaUBKTNV-1" source="CBWAm8pQO7bB-vImwyso-118" target="CBWAm8pQO7bB-vImwyso-114">
          <mxGeometry relative="1" as="geometry" />
        </mxCell>
        <mxCell id="CBWAm8pQO7bB-vImwyso-118" value="Fecha de nacimiento" style="rounded=0;whiteSpace=wrap;html=1;" vertex="1" parent="WIyWlLk6GJQsqaUBKTNV-1">
          <mxGeometry x="-766.95" y="1059" width="120" height="60" as="geometry" />
        </mxCell>
        <mxCell id="CBWAm8pQO7bB-vImwyso-119" value="DB" style="shape=cylinder3;whiteSpace=wrap;html=1;boundedLbl=1;backgroundOutline=1;size=15;fillColor=#f0a30a;fontColor=#000000;strokeColor=#BD7000;" vertex="1" parent="WIyWlLk6GJQsqaUBKTNV-1">
          <mxGeometry x="-1425" y="1605" width="60" height="80" as="geometry" />
        </mxCell>
        <mxCell id="CBWAm8pQO7bB-vImwyso-131" style="edgeStyle=orthogonalEdgeStyle;rounded=0;orthogonalLoop=1;jettySize=auto;html=1;exitX=1;exitY=0.5;exitDx=0;exitDy=0;entryX=1;entryY=0.5;entryDx=0;entryDy=0;" edge="1" parent="WIyWlLk6GJQsqaUBKTNV-1" source="CBWAm8pQO7bB-vImwyso-128" target="CBWAm8pQO7bB-vImwyso-114">
          <mxGeometry relative="1" as="geometry" />
        </mxCell>
        <mxCell id="CBWAm8pQO7bB-vImwyso-128" value="Boton Cancelar" style="html=1;whiteSpace=wrap;" vertex="1" parent="WIyWlLk6GJQsqaUBKTNV-1">
          <mxGeometry x="-756.95" y="1163" width="110" height="50" as="geometry" />
        </mxCell>
        <mxCell id="CBWAm8pQO7bB-vImwyso-130" style="edgeStyle=orthogonalEdgeStyle;rounded=0;orthogonalLoop=1;jettySize=auto;html=1;exitX=0;exitY=0.5;exitDx=0;exitDy=0;entryX=0;entryY=0.5;entryDx=0;entryDy=0;" edge="1" parent="WIyWlLk6GJQsqaUBKTNV-1" source="CBWAm8pQO7bB-vImwyso-129" target="CBWAm8pQO7bB-vImwyso-114">
          <mxGeometry relative="1" as="geometry">
            <Array as="points">
              <mxPoint x="-990" y="1188" />
              <mxPoint x="-990" y="884" />
            </Array>
          </mxGeometry>
        </mxCell>
        <mxCell id="CBWAm8pQO7bB-vImwyso-160" style="edgeStyle=orthogonalEdgeStyle;rounded=0;orthogonalLoop=1;jettySize=auto;html=1;exitX=0.5;exitY=1;exitDx=0;exitDy=0;entryX=1;entryY=0.5;entryDx=0;entryDy=0;" edge="1" parent="WIyWlLk6GJQsqaUBKTNV-1" source="CBWAm8pQO7bB-vImwyso-129" target="CBWAm8pQO7bB-vImwyso-151">
          <mxGeometry relative="1" as="geometry" />
        </mxCell>
        <mxCell id="CBWAm8pQO7bB-vImwyso-129" value="Boton Aceptar" style="html=1;whiteSpace=wrap;" vertex="1" parent="WIyWlLk6GJQsqaUBKTNV-1">
          <mxGeometry x="-964.95" y="1163" width="110" height="50" as="geometry" />
        </mxCell>
        <mxCell id="CBWAm8pQO7bB-vImwyso-134" value="Registro Libro" style="html=1;whiteSpace=wrap;fillColor=#e51400;fontColor=#ffffff;strokeColor=#B20000;" vertex="1" parent="WIyWlLk6GJQsqaUBKTNV-1">
          <mxGeometry x="-387" y="859" width="110" height="50" as="geometry" />
        </mxCell>
        <mxCell id="CBWAm8pQO7bB-vImwyso-135" style="edgeStyle=orthogonalEdgeStyle;rounded=0;orthogonalLoop=1;jettySize=auto;html=1;exitX=0;exitY=0.5;exitDx=0;exitDy=0;entryX=0;entryY=0.5;entryDx=0;entryDy=0;" edge="1" parent="WIyWlLk6GJQsqaUBKTNV-1" source="CBWAm8pQO7bB-vImwyso-136" target="CBWAm8pQO7bB-vImwyso-134">
          <mxGeometry relative="1" as="geometry" />
        </mxCell>
        <mxCell id="CBWAm8pQO7bB-vImwyso-136" value="codigo&amp;nbsp;" style="rounded=0;whiteSpace=wrap;html=1;" vertex="1" parent="WIyWlLk6GJQsqaUBKTNV-1">
          <mxGeometry x="-490" y="959" width="120" height="60" as="geometry" />
        </mxCell>
        <mxCell id="CBWAm8pQO7bB-vImwyso-137" style="edgeStyle=orthogonalEdgeStyle;rounded=0;orthogonalLoop=1;jettySize=auto;html=1;exitX=0;exitY=0.5;exitDx=0;exitDy=0;entryX=0;entryY=0.5;entryDx=0;entryDy=0;" edge="1" parent="WIyWlLk6GJQsqaUBKTNV-1" source="CBWAm8pQO7bB-vImwyso-138" target="CBWAm8pQO7bB-vImwyso-134">
          <mxGeometry relative="1" as="geometry" />
        </mxCell>
        <mxCell id="CBWAm8pQO7bB-vImwyso-138" value="Titulo&amp;nbsp;" style="rounded=0;whiteSpace=wrap;html=1;" vertex="1" parent="WIyWlLk6GJQsqaUBKTNV-1">
          <mxGeometry x="-490" y="1059" width="120" height="60" as="geometry" />
        </mxCell>
        <mxCell id="CBWAm8pQO7bB-vImwyso-139" style="edgeStyle=orthogonalEdgeStyle;rounded=0;orthogonalLoop=1;jettySize=auto;html=1;exitX=1;exitY=0.5;exitDx=0;exitDy=0;entryX=1;entryY=0.5;entryDx=0;entryDy=0;" edge="1" parent="WIyWlLk6GJQsqaUBKTNV-1" source="CBWAm8pQO7bB-vImwyso-140" target="CBWAm8pQO7bB-vImwyso-134">
          <mxGeometry relative="1" as="geometry" />
        </mxCell>
        <mxCell id="CBWAm8pQO7bB-vImwyso-140" value="Autor" style="rounded=0;whiteSpace=wrap;html=1;" vertex="1" parent="WIyWlLk6GJQsqaUBKTNV-1">
          <mxGeometry x="-287" y="959" width="120" height="60" as="geometry" />
        </mxCell>
        <mxCell id="CBWAm8pQO7bB-vImwyso-141" style="edgeStyle=orthogonalEdgeStyle;rounded=0;orthogonalLoop=1;jettySize=auto;html=1;exitX=1;exitY=0.5;exitDx=0;exitDy=0;entryX=1;entryY=0.5;entryDx=0;entryDy=0;" edge="1" parent="WIyWlLk6GJQsqaUBKTNV-1" source="CBWAm8pQO7bB-vImwyso-142" target="CBWAm8pQO7bB-vImwyso-134">
          <mxGeometry relative="1" as="geometry" />
        </mxCell>
        <mxCell id="CBWAm8pQO7bB-vImwyso-142" value="Cant. Copias" style="rounded=0;whiteSpace=wrap;html=1;" vertex="1" parent="WIyWlLk6GJQsqaUBKTNV-1">
          <mxGeometry x="-287" y="1059" width="120" height="60" as="geometry" />
        </mxCell>
        <mxCell id="CBWAm8pQO7bB-vImwyso-143" style="edgeStyle=orthogonalEdgeStyle;rounded=0;orthogonalLoop=1;jettySize=auto;html=1;exitX=1;exitY=0.5;exitDx=0;exitDy=0;entryX=1;entryY=0.5;entryDx=0;entryDy=0;" edge="1" parent="WIyWlLk6GJQsqaUBKTNV-1" source="CBWAm8pQO7bB-vImwyso-144" target="CBWAm8pQO7bB-vImwyso-134">
          <mxGeometry relative="1" as="geometry" />
        </mxCell>
        <mxCell id="CBWAm8pQO7bB-vImwyso-144" value="Editorial" style="html=1;whiteSpace=wrap;" vertex="1" parent="WIyWlLk6GJQsqaUBKTNV-1">
          <mxGeometry x="-277" y="1163" width="110" height="50" as="geometry" />
        </mxCell>
        <mxCell id="CBWAm8pQO7bB-vImwyso-145" style="edgeStyle=orthogonalEdgeStyle;rounded=0;orthogonalLoop=1;jettySize=auto;html=1;exitX=0;exitY=0.5;exitDx=0;exitDy=0;entryX=0;entryY=0.5;entryDx=0;entryDy=0;" edge="1" parent="WIyWlLk6GJQsqaUBKTNV-1" source="CBWAm8pQO7bB-vImwyso-146" target="CBWAm8pQO7bB-vImwyso-134">
          <mxGeometry relative="1" as="geometry">
            <Array as="points">
              <mxPoint x="-510.04999999999995" y="1188" />
              <mxPoint x="-510.04999999999995" y="884" />
            </Array>
          </mxGeometry>
        </mxCell>
        <mxCell id="CBWAm8pQO7bB-vImwyso-146" value="Fecha de publicacon" style="html=1;whiteSpace=wrap;" vertex="1" parent="WIyWlLk6GJQsqaUBKTNV-1">
          <mxGeometry x="-485" y="1163" width="110" height="50" as="geometry" />
        </mxCell>
        <mxCell id="CBWAm8pQO7bB-vImwyso-147" style="edgeStyle=orthogonalEdgeStyle;rounded=0;orthogonalLoop=1;jettySize=auto;html=1;exitX=0.5;exitY=0;exitDx=0;exitDy=0;entryX=0.418;entryY=0.97;entryDx=0;entryDy=0;entryPerimeter=0;" edge="1" parent="WIyWlLk6GJQsqaUBKTNV-1" source="CBWAm8pQO7bB-vImwyso-134" target="CBWAm8pQO7bB-vImwyso-68">
          <mxGeometry relative="1" as="geometry" />
        </mxCell>
        <mxCell id="CBWAm8pQO7bB-vImwyso-148" style="edgeStyle=orthogonalEdgeStyle;rounded=0;orthogonalLoop=1;jettySize=auto;html=1;exitX=0.5;exitY=0;exitDx=0;exitDy=0;entryX=0.407;entryY=0.97;entryDx=0;entryDy=0;entryPerimeter=0;" edge="1" parent="WIyWlLk6GJQsqaUBKTNV-1" source="CBWAm8pQO7bB-vImwyso-114" target="CBWAm8pQO7bB-vImwyso-68">
          <mxGeometry relative="1" as="geometry" />
        </mxCell>
        <mxCell id="CBWAm8pQO7bB-vImwyso-161" style="edgeStyle=orthogonalEdgeStyle;rounded=0;orthogonalLoop=1;jettySize=auto;html=1;exitX=0.5;exitY=1;exitDx=0;exitDy=0;entryX=1;entryY=0.75;entryDx=0;entryDy=0;" edge="1" parent="WIyWlLk6GJQsqaUBKTNV-1" source="CBWAm8pQO7bB-vImwyso-149" target="CBWAm8pQO7bB-vImwyso-151">
          <mxGeometry relative="1" as="geometry" />
        </mxCell>
        <mxCell id="CBWAm8pQO7bB-vImwyso-149" value="Boton acepatar&amp;nbsp;" style="html=1;whiteSpace=wrap;" vertex="1" parent="WIyWlLk6GJQsqaUBKTNV-1">
          <mxGeometry x="-485" y="1245" width="110" height="50" as="geometry" />
        </mxCell>
        <mxCell id="CBWAm8pQO7bB-vImwyso-150" value="Boton Cancelar" style="html=1;whiteSpace=wrap;" vertex="1" parent="WIyWlLk6GJQsqaUBKTNV-1">
          <mxGeometry x="-277" y="1245" width="110" height="50" as="geometry" />
        </mxCell>
        <mxCell id="CBWAm8pQO7bB-vImwyso-153" style="edgeStyle=orthogonalEdgeStyle;rounded=0;orthogonalLoop=1;jettySize=auto;html=1;exitX=0.5;exitY=0;exitDx=0;exitDy=0;entryX=0.5;entryY=1;entryDx=0;entryDy=0;" edge="1" parent="WIyWlLk6GJQsqaUBKTNV-1" source="CBWAm8pQO7bB-vImwyso-151" target="CBWAm8pQO7bB-vImwyso-86">
          <mxGeometry relative="1" as="geometry" />
        </mxCell>
        <mxCell id="CBWAm8pQO7bB-vImwyso-154" style="edgeStyle=orthogonalEdgeStyle;rounded=0;orthogonalLoop=1;jettySize=auto;html=1;exitX=0.5;exitY=0;exitDx=0;exitDy=0;entryX=0.5;entryY=1;entryDx=0;entryDy=0;" edge="1" parent="WIyWlLk6GJQsqaUBKTNV-1" source="CBWAm8pQO7bB-vImwyso-151" target="CBWAm8pQO7bB-vImwyso-87">
          <mxGeometry relative="1" as="geometry" />
        </mxCell>
        <mxCell id="CBWAm8pQO7bB-vImwyso-209" style="edgeStyle=orthogonalEdgeStyle;rounded=0;orthogonalLoop=1;jettySize=auto;html=1;exitX=0.75;exitY=0;exitDx=0;exitDy=0;entryX=0.75;entryY=1;entryDx=0;entryDy=0;" edge="1" parent="WIyWlLk6GJQsqaUBKTNV-1" source="CBWAm8pQO7bB-vImwyso-151" target="CBWAm8pQO7bB-vImwyso-194">
          <mxGeometry relative="1" as="geometry">
            <Array as="points">
              <mxPoint x="-1080" y="1275" />
              <mxPoint x="-1080" y="640" />
            </Array>
          </mxGeometry>
        </mxCell>
        <mxCell id="CBWAm8pQO7bB-vImwyso-243" style="edgeStyle=orthogonalEdgeStyle;rounded=0;orthogonalLoop=1;jettySize=auto;html=1;exitX=0;exitY=1;exitDx=0;exitDy=0;entryX=1;entryY=0.75;entryDx=0;entryDy=0;" edge="1" parent="WIyWlLk6GJQsqaUBKTNV-1" source="CBWAm8pQO7bB-vImwyso-151" target="CBWAm8pQO7bB-vImwyso-216">
          <mxGeometry relative="1" as="geometry">
            <Array as="points">
              <mxPoint x="-1700" y="1325" />
              <mxPoint x="-1700" y="1558" />
            </Array>
          </mxGeometry>
        </mxCell>
        <mxCell id="CBWAm8pQO7bB-vImwyso-151" value="Manipulacion de datos" style="html=1;whiteSpace=wrap;fillColor=#6a00ff;fontColor=#ffffff;strokeColor=#3700CC;" vertex="1" parent="WIyWlLk6GJQsqaUBKTNV-1">
          <mxGeometry x="-1450" y="1275" width="110" height="50" as="geometry" />
        </mxCell>
        <mxCell id="CBWAm8pQO7bB-vImwyso-213" style="edgeStyle=orthogonalEdgeStyle;rounded=0;orthogonalLoop=1;jettySize=auto;html=1;exitX=0;exitY=0.25;exitDx=0;exitDy=0;entryX=0.75;entryY=0;entryDx=0;entryDy=0;" edge="1" parent="WIyWlLk6GJQsqaUBKTNV-1" source="CBWAm8pQO7bB-vImwyso-162" target="CBWAm8pQO7bB-vImwyso-68">
          <mxGeometry relative="1" as="geometry" />
        </mxCell>
        <mxCell id="CBWAm8pQO7bB-vImwyso-162" value="Hacer Prestamo" style="rounded=0;whiteSpace=wrap;html=1;fillColor=#e51400;fontColor=#ffffff;strokeColor=#B20000;" vertex="1" parent="WIyWlLk6GJQsqaUBKTNV-1">
          <mxGeometry x="-1460" y="330" width="120" height="60" as="geometry" />
        </mxCell>
        <mxCell id="CBWAm8pQO7bB-vImwyso-171" style="edgeStyle=orthogonalEdgeStyle;rounded=0;orthogonalLoop=1;jettySize=auto;html=1;exitX=0.5;exitY=0;exitDx=0;exitDy=0;startArrow=blockThin;startFill=1;" edge="1" parent="WIyWlLk6GJQsqaUBKTNV-1" source="CBWAm8pQO7bB-vImwyso-167" target="CBWAm8pQO7bB-vImwyso-151">
          <mxGeometry relative="1" as="geometry" />
        </mxCell>
        <mxCell id="CBWAm8pQO7bB-vImwyso-175" style="edgeStyle=orthogonalEdgeStyle;rounded=0;orthogonalLoop=1;jettySize=auto;html=1;exitX=0.5;exitY=1;exitDx=0;exitDy=0;" edge="1" parent="WIyWlLk6GJQsqaUBKTNV-1" source="CBWAm8pQO7bB-vImwyso-167" target="CBWAm8pQO7bB-vImwyso-119">
          <mxGeometry relative="1" as="geometry" />
        </mxCell>
        <mxCell id="CBWAm8pQO7bB-vImwyso-167" value="Archivo de Estudiante" style="rounded=0;whiteSpace=wrap;html=1;" vertex="1" parent="WIyWlLk6GJQsqaUBKTNV-1">
          <mxGeometry x="-1455" y="1425" width="120" height="60" as="geometry" />
        </mxCell>
        <mxCell id="CBWAm8pQO7bB-vImwyso-172" style="edgeStyle=orthogonalEdgeStyle;rounded=0;orthogonalLoop=1;jettySize=auto;html=1;exitX=0.5;exitY=0;exitDx=0;exitDy=0;entryX=0.5;entryY=1;entryDx=0;entryDy=0;startArrow=classicThin;startFill=0;" edge="1" parent="WIyWlLk6GJQsqaUBKTNV-1" source="CBWAm8pQO7bB-vImwyso-168" target="CBWAm8pQO7bB-vImwyso-151">
          <mxGeometry relative="1" as="geometry" />
        </mxCell>
        <mxCell id="CBWAm8pQO7bB-vImwyso-168" value="Archivo de prestamo" style="rounded=0;whiteSpace=wrap;html=1;" vertex="1" parent="WIyWlLk6GJQsqaUBKTNV-1">
          <mxGeometry x="-1230" y="1425" width="120" height="60" as="geometry" />
        </mxCell>
        <mxCell id="CBWAm8pQO7bB-vImwyso-173" style="edgeStyle=orthogonalEdgeStyle;rounded=0;orthogonalLoop=1;jettySize=auto;html=1;exitX=0.5;exitY=0;exitDx=0;exitDy=0;startArrow=blockThin;startFill=1;" edge="1" parent="WIyWlLk6GJQsqaUBKTNV-1" source="CBWAm8pQO7bB-vImwyso-169" target="CBWAm8pQO7bB-vImwyso-151">
          <mxGeometry relative="1" as="geometry" />
        </mxCell>
        <mxCell id="CBWAm8pQO7bB-vImwyso-169" value="Archivo de Libro" style="rounded=0;whiteSpace=wrap;html=1;" vertex="1" parent="WIyWlLk6GJQsqaUBKTNV-1">
          <mxGeometry x="-1680" y="1425" width="120" height="60" as="geometry" />
        </mxCell>
        <mxCell id="CBWAm8pQO7bB-vImwyso-174" style="edgeStyle=orthogonalEdgeStyle;rounded=0;orthogonalLoop=1;jettySize=auto;html=1;exitX=0.5;exitY=1;exitDx=0;exitDy=0;entryX=0;entryY=0.5;entryDx=0;entryDy=0;entryPerimeter=0;" edge="1" parent="WIyWlLk6GJQsqaUBKTNV-1" source="CBWAm8pQO7bB-vImwyso-169" target="CBWAm8pQO7bB-vImwyso-119">
          <mxGeometry relative="1" as="geometry" />
        </mxCell>
        <mxCell id="CBWAm8pQO7bB-vImwyso-176" style="edgeStyle=orthogonalEdgeStyle;rounded=0;orthogonalLoop=1;jettySize=auto;html=1;exitX=0.5;exitY=1;exitDx=0;exitDy=0;entryX=1.009;entryY=0.587;entryDx=0;entryDy=0;entryPerimeter=0;" edge="1" parent="WIyWlLk6GJQsqaUBKTNV-1" source="CBWAm8pQO7bB-vImwyso-168" target="CBWAm8pQO7bB-vImwyso-119">
          <mxGeometry relative="1" as="geometry" />
        </mxCell>
        <mxCell id="CBWAm8pQO7bB-vImwyso-189" style="edgeStyle=orthogonalEdgeStyle;rounded=0;orthogonalLoop=1;jettySize=auto;html=1;exitX=1;exitY=0.5;exitDx=0;exitDy=0;entryX=0;entryY=0.5;entryDx=0;entryDy=0;" edge="1" parent="WIyWlLk6GJQsqaUBKTNV-1" source="CBWAm8pQO7bB-vImwyso-188" target="CBWAm8pQO7bB-vImwyso-64">
          <mxGeometry relative="1" as="geometry" />
        </mxCell>
        <mxCell id="CBWAm8pQO7bB-vImwyso-188" value="Realizar Consulta" style="html=1;whiteSpace=wrap;" vertex="1" parent="WIyWlLk6GJQsqaUBKTNV-1">
          <mxGeometry x="-2135" y="660" width="110" height="50" as="geometry" />
        </mxCell>
        <mxCell id="CBWAm8pQO7bB-vImwyso-199" style="edgeStyle=orthogonalEdgeStyle;rounded=0;orthogonalLoop=1;jettySize=auto;html=1;exitX=1;exitY=0.5;exitDx=0;exitDy=0;entryX=1;entryY=0.5;entryDx=0;entryDy=0;" edge="1" parent="WIyWlLk6GJQsqaUBKTNV-1" source="CBWAm8pQO7bB-vImwyso-190" target="CBWAm8pQO7bB-vImwyso-162">
          <mxGeometry relative="1" as="geometry" />
        </mxCell>
        <mxCell id="CBWAm8pQO7bB-vImwyso-190" value="Fecha de Prestamo" style="html=1;whiteSpace=wrap;" vertex="1" parent="WIyWlLk6GJQsqaUBKTNV-1">
          <mxGeometry x="-1360" y="430" width="110" height="50" as="geometry" />
        </mxCell>
        <mxCell id="CBWAm8pQO7bB-vImwyso-197" style="edgeStyle=orthogonalEdgeStyle;rounded=0;orthogonalLoop=1;jettySize=auto;html=1;exitX=0;exitY=0.5;exitDx=0;exitDy=0;entryX=0;entryY=0.5;entryDx=0;entryDy=0;" edge="1" parent="WIyWlLk6GJQsqaUBKTNV-1" source="CBWAm8pQO7bB-vImwyso-191" target="CBWAm8pQO7bB-vImwyso-162">
          <mxGeometry relative="1" as="geometry" />
        </mxCell>
        <mxCell id="CBWAm8pQO7bB-vImwyso-191" value="Codigo libro" style="html=1;whiteSpace=wrap;" vertex="1" parent="WIyWlLk6GJQsqaUBKTNV-1">
          <mxGeometry x="-1520" y="510" width="110" height="50" as="geometry" />
        </mxCell>
        <mxCell id="CBWAm8pQO7bB-vImwyso-195" style="edgeStyle=orthogonalEdgeStyle;rounded=0;orthogonalLoop=1;jettySize=auto;html=1;exitX=0;exitY=0.5;exitDx=0;exitDy=0;entryX=0;entryY=0.5;entryDx=0;entryDy=0;" edge="1" parent="WIyWlLk6GJQsqaUBKTNV-1" source="CBWAm8pQO7bB-vImwyso-192" target="CBWAm8pQO7bB-vImwyso-162">
          <mxGeometry relative="1" as="geometry" />
        </mxCell>
        <mxCell id="CBWAm8pQO7bB-vImwyso-192" value="Carne Estudiante" style="html=1;whiteSpace=wrap;" vertex="1" parent="WIyWlLk6GJQsqaUBKTNV-1">
          <mxGeometry x="-1520" y="430" width="110" height="50" as="geometry" />
        </mxCell>
        <mxCell id="CBWAm8pQO7bB-vImwyso-203" style="edgeStyle=orthogonalEdgeStyle;rounded=0;orthogonalLoop=1;jettySize=auto;html=1;exitX=1;exitY=0.5;exitDx=0;exitDy=0;entryX=1;entryY=0.5;entryDx=0;entryDy=0;" edge="1" parent="WIyWlLk6GJQsqaUBKTNV-1" source="CBWAm8pQO7bB-vImwyso-193" target="CBWAm8pQO7bB-vImwyso-162">
          <mxGeometry relative="1" as="geometry" />
        </mxCell>
        <mxCell id="CBWAm8pQO7bB-vImwyso-193" value="Cancelar" style="html=1;whiteSpace=wrap;" vertex="1" parent="WIyWlLk6GJQsqaUBKTNV-1">
          <mxGeometry x="-1360" y="590" width="110" height="50" as="geometry" />
        </mxCell>
        <mxCell id="CBWAm8pQO7bB-vImwyso-198" style="edgeStyle=orthogonalEdgeStyle;rounded=0;orthogonalLoop=1;jettySize=auto;html=1;exitX=0;exitY=0.5;exitDx=0;exitDy=0;entryX=0;entryY=0.5;entryDx=0;entryDy=0;" edge="1" parent="WIyWlLk6GJQsqaUBKTNV-1" source="CBWAm8pQO7bB-vImwyso-194" target="CBWAm8pQO7bB-vImwyso-162">
          <mxGeometry relative="1" as="geometry" />
        </mxCell>
        <mxCell id="CBWAm8pQO7bB-vImwyso-210" style="edgeStyle=orthogonalEdgeStyle;rounded=0;orthogonalLoop=1;jettySize=auto;html=1;exitX=0.5;exitY=1;exitDx=0;exitDy=0;entryX=0.75;entryY=0;entryDx=0;entryDy=0;" edge="1" parent="WIyWlLk6GJQsqaUBKTNV-1" source="CBWAm8pQO7bB-vImwyso-194" target="CBWAm8pQO7bB-vImwyso-151">
          <mxGeometry relative="1" as="geometry">
            <Array as="points">
              <mxPoint x="-1030" y="640" />
              <mxPoint x="-1030" y="1275" />
            </Array>
          </mxGeometry>
        </mxCell>
        <mxCell id="CBWAm8pQO7bB-vImwyso-194" value="Aceptar" style="html=1;whiteSpace=wrap;" vertex="1" parent="WIyWlLk6GJQsqaUBKTNV-1">
          <mxGeometry x="-1520" y="590" width="110" height="50" as="geometry" />
        </mxCell>
        <mxCell id="CBWAm8pQO7bB-vImwyso-239" style="edgeStyle=orthogonalEdgeStyle;rounded=0;orthogonalLoop=1;jettySize=auto;html=1;exitX=0.5;exitY=0;exitDx=0;exitDy=0;entryX=0.25;entryY=1;entryDx=0;entryDy=0;" edge="1" parent="WIyWlLk6GJQsqaUBKTNV-1" source="CBWAm8pQO7bB-vImwyso-211" target="CBWAm8pQO7bB-vImwyso-68">
          <mxGeometry relative="1" as="geometry">
            <Array as="points">
              <mxPoint x="-2085" y="928" />
              <mxPoint x="-1770" y="928" />
              <mxPoint x="-1770" y="495" />
            </Array>
          </mxGeometry>
        </mxCell>
        <mxCell id="CBWAm8pQO7bB-vImwyso-211" value="Realizar Devolucion" style="html=1;whiteSpace=wrap;fillColor=#e51400;fontColor=#ffffff;strokeColor=#B20000;" vertex="1" parent="WIyWlLk6GJQsqaUBKTNV-1">
          <mxGeometry x="-2139.5899999999997" y="1360" width="110" height="50" as="geometry" />
        </mxCell>
        <mxCell id="CBWAm8pQO7bB-vImwyso-230" style="edgeStyle=orthogonalEdgeStyle;rounded=0;orthogonalLoop=1;jettySize=auto;html=1;exitX=1;exitY=0.5;exitDx=0;exitDy=0;entryX=1;entryY=0.5;entryDx=0;entryDy=0;" edge="1" parent="WIyWlLk6GJQsqaUBKTNV-1" source="CBWAm8pQO7bB-vImwyso-216" target="CBWAm8pQO7bB-vImwyso-211">
          <mxGeometry relative="1" as="geometry" />
        </mxCell>
        <mxCell id="CBWAm8pQO7bB-vImwyso-216" value="Detalles" style="html=1;whiteSpace=wrap;" vertex="1" parent="WIyWlLk6GJQsqaUBKTNV-1">
          <mxGeometry x="-2056.5899999999997" y="1520" width="110" height="50" as="geometry" />
        </mxCell>
        <mxCell id="CBWAm8pQO7bB-vImwyso-225" style="edgeStyle=orthogonalEdgeStyle;rounded=0;orthogonalLoop=1;jettySize=auto;html=1;exitX=0;exitY=0.5;exitDx=0;exitDy=0;entryX=0;entryY=0.5;entryDx=0;entryDy=0;" edge="1" parent="WIyWlLk6GJQsqaUBKTNV-1" source="CBWAm8pQO7bB-vImwyso-217" target="CBWAm8pQO7bB-vImwyso-211">
          <mxGeometry relative="1" as="geometry" />
        </mxCell>
        <mxCell id="CBWAm8pQO7bB-vImwyso-242" style="edgeStyle=orthogonalEdgeStyle;rounded=0;orthogonalLoop=1;jettySize=auto;html=1;exitX=1;exitY=0.5;exitDx=0;exitDy=0;entryX=0;entryY=0.75;entryDx=0;entryDy=0;" edge="1" parent="WIyWlLk6GJQsqaUBKTNV-1" source="CBWAm8pQO7bB-vImwyso-217" target="CBWAm8pQO7bB-vImwyso-151">
          <mxGeometry relative="1" as="geometry">
            <Array as="points">
              <mxPoint x="-2110" y="1510" />
              <mxPoint x="-1780" y="1510" />
              <mxPoint x="-1780" y="1312" />
            </Array>
          </mxGeometry>
        </mxCell>
        <mxCell id="CBWAm8pQO7bB-vImwyso-217" value="Buscar" style="html=1;whiteSpace=wrap;" vertex="1" parent="WIyWlLk6GJQsqaUBKTNV-1">
          <mxGeometry x="-2219.64" y="1520" width="110" height="50" as="geometry" />
        </mxCell>
        <mxCell id="CBWAm8pQO7bB-vImwyso-229" style="edgeStyle=orthogonalEdgeStyle;rounded=0;orthogonalLoop=1;jettySize=auto;html=1;exitX=1;exitY=0.5;exitDx=0;exitDy=0;entryX=1;entryY=0.5;entryDx=0;entryDy=0;" edge="1" parent="WIyWlLk6GJQsqaUBKTNV-1" source="CBWAm8pQO7bB-vImwyso-218" target="CBWAm8pQO7bB-vImwyso-211">
          <mxGeometry relative="1" as="geometry" />
        </mxCell>
        <mxCell id="CBWAm8pQO7bB-vImwyso-218" value="Codigo Libro" style="html=1;whiteSpace=wrap;" vertex="1" parent="WIyWlLk6GJQsqaUBKTNV-1">
          <mxGeometry x="-2056.5899999999997" y="1440" width="110" height="50" as="geometry" />
        </mxCell>
        <mxCell id="CBWAm8pQO7bB-vImwyso-224" style="edgeStyle=orthogonalEdgeStyle;rounded=0;orthogonalLoop=1;jettySize=auto;html=1;exitX=0;exitY=0.5;exitDx=0;exitDy=0;entryX=0;entryY=0.5;entryDx=0;entryDy=0;" edge="1" parent="WIyWlLk6GJQsqaUBKTNV-1" source="CBWAm8pQO7bB-vImwyso-219" target="CBWAm8pQO7bB-vImwyso-211">
          <mxGeometry relative="1" as="geometry" />
        </mxCell>
        <mxCell id="CBWAm8pQO7bB-vImwyso-219" value="Carne Estudiante" style="html=1;whiteSpace=wrap;" vertex="1" parent="WIyWlLk6GJQsqaUBKTNV-1">
          <mxGeometry x="-2219.64" y="1440" width="110" height="50" as="geometry" />
        </mxCell>
        <mxCell id="CBWAm8pQO7bB-vImwyso-226" style="edgeStyle=orthogonalEdgeStyle;rounded=0;orthogonalLoop=1;jettySize=auto;html=1;exitX=0;exitY=0.5;exitDx=0;exitDy=0;entryX=0;entryY=0.5;entryDx=0;entryDy=0;" edge="1" parent="WIyWlLk6GJQsqaUBKTNV-1" source="CBWAm8pQO7bB-vImwyso-220" target="CBWAm8pQO7bB-vImwyso-211">
          <mxGeometry relative="1" as="geometry" />
        </mxCell>
        <mxCell id="CBWAm8pQO7bB-vImwyso-220" value="Aceptar" style="html=1;whiteSpace=wrap;" vertex="1" parent="WIyWlLk6GJQsqaUBKTNV-1">
          <mxGeometry x="-2219.64" y="1600" width="110" height="50" as="geometry" />
        </mxCell>
        <mxCell id="CBWAm8pQO7bB-vImwyso-231" style="edgeStyle=orthogonalEdgeStyle;rounded=0;orthogonalLoop=1;jettySize=auto;html=1;exitX=1;exitY=0.5;exitDx=0;exitDy=0;entryX=1;entryY=0.5;entryDx=0;entryDy=0;" edge="1" parent="WIyWlLk6GJQsqaUBKTNV-1" source="CBWAm8pQO7bB-vImwyso-221" target="CBWAm8pQO7bB-vImwyso-211">
          <mxGeometry relative="1" as="geometry" />
        </mxCell>
        <mxCell id="CBWAm8pQO7bB-vImwyso-221" value="Cancelar" style="html=1;whiteSpace=wrap;" vertex="1" parent="WIyWlLk6GJQsqaUBKTNV-1">
          <mxGeometry x="-2056.5899999999997" y="1600" width="110" height="50" as="geometry" />
        </mxCell>
        <mxCell id="CBWAm8pQO7bB-vImwyso-234" value="Realizar Consulta" style="html=1;whiteSpace=wrap;fillColor=#e51400;fontColor=#ffffff;strokeColor=#B20000;" vertex="1" parent="WIyWlLk6GJQsqaUBKTNV-1">
          <mxGeometry x="-2780" y="363" width="110" height="50" as="geometry" />
        </mxCell>
        <mxCell id="CBWAm8pQO7bB-vImwyso-247" style="edgeStyle=orthogonalEdgeStyle;rounded=0;orthogonalLoop=1;jettySize=auto;html=1;exitX=1;exitY=0.5;exitDx=0;exitDy=0;entryX=0.091;entryY=0.1;entryDx=0;entryDy=0;entryPerimeter=0;" edge="1" parent="WIyWlLk6GJQsqaUBKTNV-1" source="CBWAm8pQO7bB-vImwyso-234" target="CBWAm8pQO7bB-vImwyso-68">
          <mxGeometry relative="1" as="geometry">
            <Array as="points">
              <mxPoint x="-2670" y="390" />
              <mxPoint x="-1690" y="390" />
            </Array>
          </mxGeometry>
        </mxCell>
      </root>
    </mxGraphModel>
  </diagram>
</mxfile>
